<svg xmlns="http://www.w3.org/2000/svg" fill="none" viewBox="0 0 32 32" height="1024" width="1024">
<g clip-path="url(#clip0_31_1447)">
<path fill="url(#paint0_radial_31_1447)" d="M15.9989 29.9978C25.3333 29.9978 29.9978 23.7303 29.9978 15.9989C29.9978 8.26751 25.3333 2 15.9989 2C6.66443 2 2 8.26751 2 15.9989C2 23.7303 6.66443 29.9978 15.9989 29.9978Z"></path>
<path fill-opacity="0.6" fill="url(#paint1_radial_31_1447)" d="M15.9989 29.9978C25.3333 29.9978 29.9978 23.7303 29.9978 15.9989C29.9978 8.26751 25.3333 2 15.9989 2C6.66443 2 2 8.26751 2 15.9989C2 23.7303 6.66443 29.9978 15.9989 29.9978Z"></path>
<path stroke-linecap="round" stroke-width="2" stroke="url(#paint2_linear_31_1447)" d="M12 26C12.3333 25.3333 13.6 24 16 24C18.4 24 19.6667 25.3333 20 26"></path>
<circle fill="url(#paint3_radial_31_1447)" r="5" cy="19" cx="9"></circle>
<circle fill="url(#paint4_radial_31_1447)" r="4.5" cy="19.5" cx="19.5"></circle>
<path fill="white" d="M10.5 22C12.9853 22 15 19.9853 15 17.5C15 15.0147 12.9853 13 10.5 13C8.01472 13 6 15.0147 6 17.5C6 19.9853 8.01472 22 10.5 22Z"></path>
<path fill="white" d="M21.5 22C23.9853 22 26 19.9853 26 17.5C26 15.0147 23.9853 13 21.5 13C19.0147 13 17 15.0147 17 17.5C17 19.9853 19.0147 22 21.5 22Z"></path>
<path fill="url(#paint5_linear_31_1447)" d="M12 20C13.1046 20 14 19.1046 14 18C14 16.8954 13.1046 16 12 16C10.8954 16 10 16.8954 10 18C10 19.1046 10.8954 20 12 20Z"></path>
<path fill="url(#paint6_linear_31_1447)" d="M20 20C21.1046 20 22 19.1046 22 18C22 16.8954 21.1046 16 20 16C18.8954 16 18 16.8954 18 18C18 19.1046 18.8954 20 20 20Z"></path>
<path stroke-linejoin="round" stroke-linecap="round" stroke-width="1.5" stroke="url(#paint7_linear_31_1447)" d="M10.25 11.25C10.25 11.25 11 14.25 14.25 14.25"></path>
<path stroke-linejoin="round" stroke-linecap="round" stroke-width="1.5" stroke="url(#paint8_linear_31_1447)" d="M21.75 11.25C21.75 11.25 21 14.25 17.75 14.25"></path>
<path fill="url(#paint9_radial_31_1447)" d="M8 6C8 6 5.60778 5.26667 4.45778 3.22667C4.17778 2.71667 3.85778 3.22667 3.85778 3.22667C3.85778 3.22667 1.84997 7 3.99997 11C4.25997 11.69 5.51 12 6.5 12C8.29 12 9.60777 10.4667 9.60777 8.68667C9.61777 7.46667 9.08 6.36 8 6Z"></path>
<path fill="url(#paint10_radial_31_1447)" d="M24.0061 6C24.0061 6 26.3983 5.26667 27.5483 3.22667C27.8283 2.71667 28.1483 3.22667 28.1483 3.22667C28.1483 3.22667 30.1561 7 28.0061 11C27.7461 11.69 26.4961 12 25.5061 12C23.7161 12 22.3983 10.4667 22.3983 8.68667C22.3883 7.46667 22.9261 6.36 24.0061 6Z"></path>
<path fill="url(#paint11_radial_31_1447)" d="M24.0061 6C24.0061 6 26.3983 5.26667 27.5483 3.22667C27.8283 2.71667 28.1483 3.22667 28.1483 3.22667C28.1483 3.22667 30.1561 7 28.0061 11C27.7461 11.69 26.4961 12 25.5061 12C23.7161 12 22.3983 10.4667 22.3983 8.68667C22.3883 7.46667 22.9261 6.36 24.0061 6Z"></path>
</g>
<defs>
<radialGradient gradientTransform="translate(21.5 10) rotate(94.5739) scale(25.0799)" gradientUnits="userSpaceOnUse" r="1" cy="0" cx="0" id="paint0_radial_31_1447">
<stop stop-color="#9F70B8"></stop>
<stop stop-color="#8543A8" offset="0.514303"></stop>
<stop stop-color="#9344BB" offset="0.71368"></stop>
<stop stop-color="#6B438B" offset="0.888763"></stop>
</radialGradient>
<radialGradient gradientTransform="translate(18 14) rotate(135) scale(45.2548)" gradientUnits="userSpaceOnUse" r="1" cy="0" cx="0" id="paint1_radial_31_1447">
<stop stop-opacity="0" offset="0.314853"></stop>
<stop offset="1"></stop>
</radialGradient>
<linearGradient gradientUnits="userSpaceOnUse" y2="25" x2="16" y1="23" x1="16" id="paint2_linear_31_1447">
<stop stop-color="#4F3C43"></stop>
<stop stop-color="#512756" offset="1"></stop>
</linearGradient>
<radialGradient gradientTransform="translate(12.8889 15.1111) rotate(135) scale(9.74236 5.04232)" gradientUnits="userSpaceOnUse" r="1" cy="0" cx="0" id="paint3_radial_31_1447">
<stop stop-color="#392108"></stop>
<stop stop-opacity="0" stop-color="#C87928" offset="1"></stop>
</radialGradient>
<radialGradient gradientTransform="translate(23 16) rotate(135) scale(8.13173 4.59049)" gradientUnits="userSpaceOnUse" r="1" cy="0" cx="0" id="paint4_radial_31_1447">
<stop stop-color="#392108"></stop>
<stop stop-opacity="0" stop-color="#C87928" offset="1"></stop>
</radialGradient>
<linearGradient gradientUnits="userSpaceOnUse" y2="20.0302" x2="19.9265" y1="16" x1="20.6154" id="paint5_linear_31_1447">
<stop stop-color="#553B3E"></stop>
<stop stop-color="#3D2432" offset="1"></stop>
</linearGradient>
<linearGradient gradientUnits="userSpaceOnUse" y2="20.0302" x2="19.9265" y1="16" x1="20.6154" id="paint6_linear_31_1447">
<stop stop-color="#553B3E"></stop>
<stop stop-color="#3D2432" offset="1"></stop>
</linearGradient>
<linearGradient gradientUnits="userSpaceOnUse" y2="12.5" x2="11.5" y1="11" x1="11.5" id="paint7_linear_31_1447">
<stop stop-color="#524049" offset="0.0299084"></stop>
<stop stop-color="#4A2C42" offset="1"></stop>
</linearGradient>
<linearGradient gradientUnits="userSpaceOnUse" y2="12.5" x2="20.5" y1="11" x1="20.5" id="paint8_linear_31_1447">
<stop stop-color="#524049" offset="0.0299084"></stop>
<stop stop-color="#4A2C42" offset="1"></stop>
</linearGradient>
<radialGradient gradientTransform="translate(12 1.5) rotate(165.379) scale(11.8849 11.8849)" gradientUnits="userSpaceOnUse" r="1" cy="0" cx="0" id="paint9_radial_31_1447">
<stop stop-color="#8649AC" offset="0.472635"></stop>
<stop stop-color="#AE7CC7" offset="0.644517"></stop>
<stop stop-color="#9353B3" offset="0.759105"></stop>
<stop stop-color="#733295" offset="0.945555"></stop>
</radialGradient>
<radialGradient gradientTransform="translate(15 5) rotate(-8.36589) scale(17.1828 17.1828)" gradientUnits="userSpaceOnUse" r="1" cy="0" cx="0" id="paint10_radial_31_1447">
<stop stop-color="#613184" offset="0.472635"></stop>
<stop stop-color="#9353B8" offset="0.727168"></stop>
<stop stop-color="#792F9F" offset="0.945555"></stop>
</radialGradient>
<radialGradient gradientTransform="translate(28 4.5) rotate(103.134) scale(15.4029 5.28047)" gradientUnits="userSpaceOnUse" r="1" cy="0" cx="0" id="paint11_radial_31_1447">
<stop stop-color="#B676D6"></stop>
<stop stop-opacity="0" stop-color="#B676D6" offset="0.305394"></stop>
</radialGradient>
<clipPath id="clip0_31_1447">
<rect fill="white" height="32" width="32"></rect>
</clipPath>
</defs>
</svg>
